<!-- icon666.com - MILLIONS vector ICONS FREE --><svg id="Layer_1" enable-background="new 0 0 100 100" viewBox="0 0 100 100" xmlns="http://www.w3.org/2000/svg"><g><path d="m56.068 74.467c-.24 0-.481-.058-.702-.174-.491-.26-.798-.77-.798-1.326v-16.233h-44.391c-.829 0-1.5-.671-1.5-1.5v-10.468c0-.829.671-1.5 1.5-1.5h44.391v-16.233c0-.556.307-1.066.798-1.326.491-.259 1.086-.227 1.545.085l33.756 22.968c.411.279.656.744.656 1.24s-.246.961-.656 1.24l-33.755 22.967c-.254.172-.549.26-.844.26zm-44.391-20.733h44.391c.829 0 1.5.671 1.5 1.5v14.897l29.588-20.131-29.588-20.132v14.897c0 .829-.671 1.5-1.5 1.5h-44.391z"></path></g></svg>